# xmcd
#
# Track frame offsets:
#	150
#	22443
#	23942
#	31465
#	49112
#	62212
#	66034
#	80580
#	82554
#	95917
#	117276
#	140258
#	154278
#	169665
#	174179
#	193616
#	207015
#	218190
#
# Disc length: 3094 seconds
#
# Revision: 1
# Processed by: cddbd v1.4PL0 Copyright (c) Steve Scherf et al.
# Submitted via: CDmax 1.9
#
DISCID=f80c1412
DTITLE=Ghetto E - Ghetto Theater
DYEAR=2001
DGENRE=Rap
TTITLE0=Ball Like That (feat. Shoestring and MC Breed)
TTITLE1=Courthouse Intro
TTITLE2=Bitch You Makin Me Famous (feat. Bootleg)
TTITLE3=Still Going Through a Thing (feat. Bootleg and Esham)
TTITLE4=Lollipops
TTITLE5=Blow Party (Skit)
TTITLE6=Party Is All I Know
TTITLE7=World (Skit)
TTITLE8=World and Everything (feat. Bootleg)
TTITLE9=Family Tree
TTITLE10=Resumé Of A Killa (feat. Bootleg, Esham and Streetlife)
TTITLE11=Feared Than Loved (feat. Viper)
TTITLE12=Trust (feat. Bootleg and Streetlife)
TTITLE13=Playa Hatta (Intro Skit)
TTITLE14=Playa Hatta (feat. Bootleg and Swift D)
TTITLE15=Street Life
TTITLE16=Rollin' With Me (feat. Bootleg and Streetlife)
TTITLE17=Lollipops (Remix)
EXTD=
EXTT0=
EXTT1=
EXTT2=
EXTT3=
EXTT4=
EXTT5=
EXTT6=
EXTT7=
EXTT8=
EXTT9=
EXTT10=
EXTT11=
EXTT12=
EXTT13=
EXTT14=
EXTT15=
EXTT16=
EXTT17=
PLAYORDER=
